<svg xmlns="http://www.w3.org/2000/svg" viewBox="0 0 64 64" fill="none">
  <!-- coffee cup body -->
  <rect x="14" y="24" width="28" height="24" rx="3" fill="#E76F00"/>
  <!-- cup handle -->
  <path d="M42 28h4a4 4 0 0 1 4 4v4a4 4 0 0 1-4 4h-4" stroke="#E76F00" stroke-width="3" fill="none"/>
  <!-- coffee surface -->
  <rect x="14" y="24" width="28" height="8" rx="3" fill="#5382A1"/>
  <!-- steam lines -->
  <path d="M22 20c0-3 2-4 0-7" stroke="#5382A1" stroke-width="2" stroke-linecap="round" fill="none"/>
  <path d="M28 18c0-3 2-4 0-7" stroke="#5382A1" stroke-width="2" stroke-linecap="round" fill="none"/>
  <path d="M34 20c0-3 2-4 0-7" stroke="#5382A1" stroke-width="2" stroke-linecap="round" fill="none"/>
  <!-- saucer -->
  <ellipse cx="28" cy="52" rx="18" ry="3" fill="#E76F00" opacity="0.8"/>
  <rect x="12" y="48" width="32" height="4" rx="2" fill="#E76F00"/>
</svg>
