<svg xmlns="http://www.w3.org/2000/svg" viewBox="0 0 64 64" fill="none">
  <rect x="4" y="4" width="56" height="56" rx="4" fill="#F7DF1E"/>
  <path d="M19.2 44.8L23.6 42.2C24.4 43.7 25.1 44.9 27 44.9C28.8 44.9 29.8 44.2 29.8 41.3V26H35.2V41.4C35.2 47.2 31.8 49.6 27.3 49.6C23.2 49.6 20.8 47.6 19.2 44.8Z" fill="#323330"/>
  <path d="M37.6 44.2L42 41.8C43.1 43.6 44.5 44.9 47 44.9C49.1 44.9 50.4 43.9 50.4 42.5C50.4 40.8 49 40.2 46.7 39.2L45.4 38.6C41.8 37.1 39.4 35.1 39.4 31.1C39.4 27.4 42.2 24.6 46.6 24.6C49.8 24.6 52 25.8 53.6 28.6L49.4 31.2C48.6 29.8 47.7 29.2 46.6 29.2C45.4 29.2 44.7 29.9 44.7 31.2C44.7 32.8 45.4 33.4 47.5 34.3L48.8 34.9C53.1 36.7 55.5 38.6 55.5 42.6C55.5 46.9 52.1 49.6 47.1 49.6C42.2 49.6 39.1 47.2 37.6 44.2Z" fill="#323330"/>
</svg>
