<svg xmlns="http://www.w3.org/2000/svg" viewBox="0 0 64 64" fill="none">
  <path d="M24.2 40.8C24.2 40.8 22.2 42 25.4 42.4C29.2 42.8 31.2 42.8 35.6 42C35.6 42 36.8 42.8 38.4 43.4C28.4 47.8 16 43 24.2 40.8Z" fill="#5382A1"/>
  <path d="M22.8 36.4C22.8 36.4 20.6 38.2 23.8 38.6C28 39 31.4 39 37.2 38C37.2 38 38 38.8 39.4 39.4C27.4 43 14.4 39.6 22.8 36.4Z" fill="#5382A1"/>
  <path d="M34 28.6C36.4 31.4 33.4 33.8 33.4 33.8C33.4 33.8 39.4 30.6 36.6 26.8C34 23.2 32 21.4 42 15.8C42 15.8 25.4 20 34 28.6Z" fill="#E76F00"/>
  <path d="M44.4 44.4C44.4 44.4 46 45.6 42.8 46.6C36.8 48.4 20.8 49 15.6 46.6C13.8 45.8 17 44.8 18 44.6C19 44.4 19.6 44.4 19.6 44.4C17.6 43 7 48.2 14.2 49.4C33.8 52.8 50 47.8 44.4 44.4Z" fill="#5382A1"/>
  <path d="M25.2 14.8S14.8 17.2 22.4 18.2C25.8 18.6 32.4 18.4 38.6 17.8C43.6 17.2 48.6 16 48.6 16S46.4 17 44.8 18.2C33.2 21.2 10.8 19.8 17.8 16.4C23.6 13.6 25.2 14.8 25.2 14.8Z" fill="#5382A1"/>
  <path d="M42.8 38.8C54.6 32.6 49 26.8 45.4 27.6C44.6 27.8 44.2 28 44.2 28S44.6 27.4 45.4 27.2C52.8 24.8 58.6 34.4 42.6 39.2C42.6 39 42.8 38.8 42.8 38.8Z" fill="#E76F00"/>
</svg>
