<svg xmlns="http://www.w3.org/2000/svg" viewBox="0 0 64 64" fill="none">
  <defs>
    <linearGradient id="pyBlue" x1="0" y1="0" x2="1" y2="0.5">
      <stop offset="0%" stop-color="#5A9FD4"/>
      <stop offset="100%" stop-color="#306998"/>
    </linearGradient>
    <linearGradient id="pyYellow" x1="0" y1="0.5" x2="1" y2="1">
      <stop offset="0%" stop-color="#FFD43B"/>
      <stop offset="100%" stop-color="#FFE873"/>
    </linearGradient>
  </defs>
  <path d="M31.9 6C18.8 6 19.8 11.8 19.8 11.8V17.8H32.3V19.8H13.3C13.3 19.8 6 18.8 6 32.1S12.2 44.2 12.2 44.2H16.8V38C16.8 38 16.5 31.8 22.9 31.8H35.2C35.2 31.8 41.2 31.9 41.2 26V14.5C41.2 14.5 42.2 6 31.9 6ZM23.5 11C24.9 11 26 12.1 26 13.5S24.9 16 23.5 16S21 14.9 21 13.5S22.1 11 23.5 11Z" fill="url(#pyBlue)"/>
  <path d="M32.1 58C45.2 58 44.2 52.2 44.2 52.2V46.2H31.7V44.2H50.7C50.7 44.2 58 45.2 58 31.9S51.8 19.8 51.8 19.8H47.2V26C47.2 26 47.5 32.2 41.1 32.2H28.8C28.8 32.2 22.8 32.1 22.8 38V49.5C22.8 49.5 21.8 58 32.1 58ZM40.5 53C39.1 53 38 51.9 38 50.5S39.1 48 40.5 48S43 49.1 43 50.5S41.9 53 40.5 53Z" fill="url(#pyYellow)"/>
</svg>
